<svg width="64" height="64" viewBox="0 0 64 64" fill="none" xmlns="http://www.w3.org/2000/svg">
  <rect width="64" height="64" rx="14" fill="#121212"/>
  <circle cx="32" cy="32" r="23" fill="#1ED760"/>
  <path d="M32 17.5C25.92 17.5 21 20.53 21 24.27C21 28.01 25.92 31.03 32 31.03C38.08 31.03 43 28.01 43 24.27C43 20.53 38.08 17.5 32 17.5Z" stroke="#050505" stroke-width="4"/>
  <path d="M21 24.43V32.68C21 36.42 25.92 39.45 32 39.45C38.08 39.45 43 36.42 43 32.68V24.43" stroke="#050505" stroke-width="4" stroke-linecap="round"/>
  <path d="M21 32.68V40.38C21 44.13 25.92 47.18 32 47.18C33.95 47.18 35.79 46.87 37.38 46.29" stroke="#050505" stroke-width="4" stroke-linecap="round"/>
  <path d="M37.15 39.8H46.3M46.3 39.8L42.86 36.36M46.3 39.8L42.86 43.24" stroke="#050505" stroke-width="4" stroke-linecap="round" stroke-linejoin="round"/>
  <path d="M37.15 47.14H44.85" stroke="#050505" stroke-width="4" stroke-linecap="round"/>
</svg>
